<?xml version="1.0" encoding="UTF-8"?>
<!DOCTYPE svg PUBLIC "-//W3C//DTD SVG 1.1//EN" "http://www.w3.org/Graphics/SVG/1.1/DTD/svg11.dtd">
<!-- Creator: CorelDRAW 2021.5 -->
<svg xmlns="http://www.w3.org/2000/svg" xml:space="preserve" width="169.333mm" height="84.6666mm" version="1.1" style="shape-rendering:geometricPrecision; text-rendering:geometricPrecision; image-rendering:optimizeQuality; fill-rule:evenodd; clip-rule:evenodd"
viewBox="0 0 16933.32 8466.66"
 xmlns:xlink="http://www.w3.org/1999/xlink"
 xmlns:xodm="http://www.corel.com/coreldraw/odm/2003">
 <defs>
  <style type="text/css">
   <![CDATA[
    .fil1 {fill:#005B9B}
    .fil3 {fill:#00A4D5}
    .fil0 {fill:#005B9B;fill-rule:nonzero}
    .fil2 {fill:#252220;fill-rule:nonzero}
   ]]>
  </style>
 </defs>
 <g id="Layer_x0020_1">
  <metadata id="CorelCorpID_0Corel-Layer"/>
  <g id="Original_EaseMyTrip_x0020_Logo.svg">
   <path class="fil0" d="M1674.37 5860.65l0 -566.68 667.08 0 0 -319.62 -667.08 0 0 -494.14 707.45 0 0 -327.62 -1100.14 0 0 2038.12 1140.5 0 0 -327.63 -747.81 0 0 -2.43zm1111.1 -797.57c96.91,-59.15 228.62,-102.13 363.12,-102.13 215.22,0 266.38,110.14 266.38,257.85 -470.82,0 -806.97,177.3 -806.97,555.9 0,239.06 169.47,443.14 443.85,443.14 164.07,0 309.35,-67.16 392.69,-182.68l8 0 24.19 153.11 352.33 0c-16.19,-91.34 -21.58,-220.27 -21.58,-349.02l0 -539.72c0,-322.23 -123.71,-614.88 -583.74,-614.88 -231.4,0 -414.26,67.16 -513.78,123.53l75.51 254.9zm640.1 620.45c0,187.91 -153.28,255.07 -247.41,255.07 -99.52,0 -185.65,-61.77 -185.65,-201.49 0,-214.87 220.62,-265.85 433.06,-265.85l0 212.27zm643.07 434.97c99.52,59.16 255.59,99.35 416.88,99.35 368.51,0 581.12,-185.3 581.12,-467.33 0,-204.1 -115.7,-346.42 -365.9,-451.16 -169.46,-72.55 -226.01,-112.74 -226.01,-196.08 0,-80.56 64.55,-139.72 182.87,-139.72 110.31,0 215.22,42.98 279.77,77.95l75.34 -276.65c-86.13,-45.58 -215.23,-83.16 -365.9,-83.16 -328.15,0 -540.77,201.48 -540.77,467.33 0,161.11 102.31,316.84 376.69,429.58 161.46,69.77 212.44,115.53 212.44,206.71 0,91.34 -67.33,147.71 -204.44,147.71 -121.1,0 -268.99,-53.76 -344.32,-99.35l-77.77 284.82zm2445.25 -550.5c8,-42.97 10.78,-99.35 10.78,-155.72 0,-477.95 -234.01,-730.41 -591.73,-730.41 -433.07,0 -677.87,365.21 -677.87,789.57 0,459.16 260.99,746.59 718.23,746.59 182.86,0 355.11,-32.19 478.82,-85.95l-56.55 -271.25c-102.31,34.97 -215.23,61.77 -360.51,61.77 -212.44,0 -392.69,-102.13 -403.48,-351.81l882.31 -0.01 0 -2.78zm-882.48 -271.25c10.79,-144.94 91.52,-341.02 279.78,-341.02 193.65,0 255.59,187.91 252.81,341.02l-532.59 0zm2563.73 -1146.59l-231.4 765.38c-69.95,244.28 -129.1,491.34 -177.48,719.62l-7.99 0c-45.77,-233.67 -104.92,-472.56 -169.47,-719.62l-220.61 -765.38 -486.83 0 -137.1 2038.11 357.72 0 40.36 -784.17c13.4,-252.46 26.97,-553.11 32.36,-810.96l8.01 0c48.37,249.67 112.92,526.31 177.47,754.59l226.01 810.96 298.57 0 250.19 -824.36c69.94,-228.27 142.5,-499.53 201.83,-741.2l8 0.01c-2.78,206.7 10.79,534.32 21.58,802.96l37.58 792.17 373.91 0 -115.71 -2038.11 -487 0zm1554.78 1334.67c-21.58,91.35 -45.77,196.09 -61.77,276.65l-8 -0.01c-18.97,-83.16 -45.77,-185.3 -69.95,-276.64l-217.83 -770.77 -430.45 0 497.61 1356.07c10.78,29.58 16.18,50.98 16.18,67.16 0,29.58 -67.33,179.9 -196.43,273.86 -69.94,48.36 -142.49,91.34 -207.04,107.35l99.52 330.23c88.73,-16.18 239.41,-69.77 381.9,-206.7 166.68,-166.51 293.17,-426.97 457.25,-904.92l333.54 -1025.84 -408.89 0.01 -185.64 773.55zm640.28 -1334.67l0 338.41 503.17 0 0 1699.87 392.7 0 0 -1699.87 505.79 0 0 -338.41 -1401.66 0zm1950.24 818.97l-16.18 -257.85 -336.31 0c5.39,131.53 10.78,279.25 10.78,461.94l0 1015.05 392.7 0 0 -762.59c0,-252.46 134.49,-370.6 311.96,-370.6 40.37,0 72.55,2.61 102.13,8l0 -373.2c-26.79,-5.4 -51.15,-8.01 -88.73,-8.01 -137.11,0 -298.57,99.35 -365.73,290.04l-10.79 0 0 -2.78 0.17 0zm1089.53 -660.64c0,-120.93 -86.13,-209.48 -212.62,-209.48 -121.1,0 -209.83,88.55 -209.83,209.48 0,118.14 86.12,209.48 209.83,209.48 123.71,2.79 212.62,-80.56 212.62,-209.48zm-406.27 1879.78l392.7 0 0 -1476.82 -392.7 0 0 1476.82zm1078.74 -1474.21l-341.55 0c5.4,134.32 10.79,292.65 10.79,483.34l0 1584.35 392.7 0 0 -735.8 5.39 0c64.55,99.35 188.26,171.9 349.72,171.9 301.35,0 607.91,-239.06 607.91,-781.38 0,-453.76 -239.41,-754.6 -562.16,-754.6 -191.04,0 -341.54,83.17 -438.45,233.67l-5.39 0 -18.96 -201.48zm61.94 604.26c0,-177.29 118.31,-319.62 271.59,-319.62 193.65,0 295.96,190.69 295.96,453.77 0,265.85 -104.74,461.94 -303.96,461.94 -131.71,0 -263.59,-104.74 -263.59,-316.84l0 -279.25z"/>
   <path class="fil1" d="M3820.88 4904.75c1081.51,-2180.61 4035.16,-512.92 5673.45,-1968.52 -1632.9,1702.66 -4863.7,265.86 -5673.45,1968.52z"/>
   <path class="fil1" d="M8733.64 2975.21l195.4 208.27c95.17,102.83 68.72,105.44 -39.68,171.37l-620.79 290.04c-73.95,44.89 -121.44,7.84 -68.72,-76.38l393.56 -630.18c37.24,-79.17 79.51,-37.07 140.23,36.88z"/>
   <g>
    <path class="fil2" d="M14345.85 6781.75c12.35,0 20.53,-4.18 24.7,-12.36 4.18,-8.18 5.4,-17.92 5.4,-28.88 0,-9.57 -4.01,-16.53 -10.97,-21.92 -6.78,-5.57 -15.13,-9.57 -23.49,-9.57 -10.96,0 -17.92,4.17 -22.09,13.74 -4.01,9.57 -5.39,17.92 -5.39,27.49 0,9.57 2.78,16.53 9.56,23.31 4.53,5.41 12.71,8.19 22.28,8.19l0 0zm175.38 2.61c23.31,0 45.41,-4.18 67.33,-12.36 22.1,-8.18 42.63,-17.92 60.55,-31.49 19.14,-13.74 35.67,-28.88 50.81,-46.63 15.14,-17.92 28.88,-35.67 38.63,-54.98 1.39,-2.78 2.78,-5.39 4,-9.57 1.39,-4.18 2.78,-6.79 2.78,-9.57 0,-8.18 -4.17,-12.35 -12.35,-12.35 -5.4,0 -9.57,2.78 -13.75,6.78 -4.17,5.57 -6.78,9.57 -9.57,13.75 -8.35,13.74 -17.92,27.48 -28.88,41.23 -10.96,13.75 -24.7,24.71 -37.23,35.67 -13.75,10.96 -28.88,19.14 -43.85,26.1 -15.14,6.79 -33.06,9.57 -49.41,9.57 -16.53,0 -30.28,-5.57 -41.24,-16.53 -8.18,-8.18 -13.74,-17.75 -16.53,-28.88 -4.18,-10.97 -5.39,-23.32 -5.39,-37.07 0,-13.74 1.39,-28.88 4,-43.84 2.78,-15.14 6.79,-30.28 12.36,-43.85 5.39,-13.75 10.96,-27.49 17.92,-38.45 6.78,-10.96 13.74,-20.53 19.13,-27.49 5.57,-5.57 12.36,-10.96 17.92,-13.74 6.79,-4.18 13.75,-5.57 20.71,-5.57 9.57,0 14.96,2.78 16.53,9.56 1.4,6.79 2.78,13.75 2.78,20.53 0,12.36 -2.78,23.32 -6.78,31.5 -5.4,8.18 -6.79,16.53 -6.79,21.92 0,5.57 2.78,8.18 8.35,8.18 6.79,0 13.75,-2.78 20.53,-8.18 6.79,-6.79 12.36,-16.53 15.14,-28.88 2.78,-12.36 4.01,-21.93 4.01,-31.49 0,-21.93 -5.4,-37.07 -17.92,-46.63 -10.97,-9.57 -27.49,-13.75 -46.63,-13.75 -16.54,0 -33.06,4.18 -46.81,9.57 -13.74,6.79 -27.48,16.53 -38.45,27.49 -9.74,9.57 -17.92,19.13 -24.7,31.49 -8.35,12.36 -13.75,26.1 -19.32,39.84 -5.39,13.75 -9.56,28.89 -13.74,43.85 -2.78,15.14 -4.17,30.28 -4.17,46.63 0,20.53 2.78,41.24 9.56,60.38 5.57,19.13 16.54,35.67 30.28,49.41 6.79,6.79 16.53,13.74 26.1,17.92 7.99,7.32 20.35,9.93 34.09,9.93zm193.83 -108.4c0,35.67 8.35,63.16 22.09,79.51 15.14,16.53 33.06,26.1 53.59,26.1 16.53,0 33.06,-4.18 50.8,-13.74 17.92,-9.57 33.06,-23.32 48.2,-41.24 13.74,-17.92 26.1,-39.85 35.67,-65.95 9.57,-26.1 13.74,-56.19 13.74,-90.64 0,-13.75 -1.39,-27.49 -5.57,-41.24 -2.78,-12.36 -8.18,-23.31 -13.74,-32.89 -5.39,-9.57 -13.75,-16.53 -23.31,-21.92 -9.57,-5.57 -20.53,-8.18 -33.06,-8.18 -22.1,0 -41.24,6.78 -60.55,19.13 -17.92,13.75 -34.28,30.28 -46.63,50.81 -12.36,20.53 -23.49,43.85 -30.28,67.16 -6.78,26.46 -10.95,49.78 -10.95,73.09zm148.41 -157.8c13.74,0 24.71,6.78 30.28,19.13 6.78,13.75 9.56,28.88 10.96,48.03 0,24.7 -2.78,46.63 -8.35,65.94 -5.4,19.14 -13.75,35.67 -22.1,49.41 -9.57,13.75 -19.14,23.31 -30.28,31.5 -10.96,6.78 -20.53,10.96 -31.66,10.96 -10.96,0 -20.71,-5.57 -28.88,-16.53 -8.35,-10.97 -10.96,-27.49 -10.96,-50.81 0,-16.53 2.78,-34.27 6.78,-52.2 5.4,-17.92 12.36,-35.67 19.14,-50.81 8.35,-15.13 17.92,-28.88 28.88,-38.45 11.48,-10.61 23.83,-16.17 36.19,-16.17zm365.72 244.27c5.57,0 8.35,-1.39 12.36,-4.17 4,-2.78 6.78,-5.57 9.57,-10.96 4.17,-6.79 9.56,-16.54 16.53,-31.5 8.35,-13.74 16.53,-30.09 27.49,-48.02 10.96,-17.75 22.09,-35.67 33.05,-53.59 10.97,-17.92 23.49,-35.67 34.28,-50.8 10.96,-15.14 20.71,-27.49 30.27,-37.07 9.57,-9.56 16.54,-15.13 23.32,-15.13 4.17,0 6.78,1.39 8.35,4.17 1.39,2.78 2.78,6.79 4.17,10.96 1.4,4.18 1.4,8.18 1.4,12.36l0 9.57c0,23.31 -1.4,46.63 -4.01,69.94 -2.78,23.31 -4.17,46.63 -4.17,69.94 0,9.57 0,20.53 1.39,32.89 1.39,12.36 2.78,23.31 6.79,34.27 4.17,10.97 9.74,20.53 16.53,27.49 6.78,6.79 17.92,10.96 30.27,10.96 13.75,0 28.89,-4.17 45.42,-13.74 16.53,-9.57 31.66,-20.53 46.8,-32.89 15.14,-12.35 30.28,-26.1 42.62,-41.24 13.75,-13.74 23.49,-27.48 31.67,-37.06 1.39,-2.78 2.78,-4.17 5.57,-8.18 1.39,-2.78 2.78,-5.57 2.78,-8.18 0,-4.17 -1.39,-8.18 -2.78,-10.96 -1.4,-4.18 -4.18,-5.39 -9.75,-5.39 -5.39,0 -9.57,2.78 -13.74,6.78 -4.01,5.57 -8.18,9.57 -10.96,13.75 -5.4,6.78 -12.36,15.13 -21.93,26.1 -9.74,10.96 -20.53,20.53 -31.66,31.49 -10.96,9.57 -23.49,19.14 -34.45,26.1 -10.96,6.79 -21.93,10.96 -30.28,10.96 -5.57,0 -9.57,-1.39 -13.74,-5.57 -2.78,-4.17 -5.57,-8.18 -6.79,-12.35 -1.39,-5.4 -1.39,-9.57 -1.39,-15.14l0 -13.75c0,-30.27 1.39,-60.37 5.39,-89.25 4.18,-28.88 5.57,-58.98 5.57,-89.26 0,-6.78 -1.39,-15.14 -2.78,-21.92 -1.4,-8.18 -4.18,-15.14 -8.35,-20.53 -4.18,-6.79 -9.57,-12.36 -15.14,-16.53 -6.79,-4.18 -13.75,-6.79 -21.93,-6.79 -12.35,0 -23.49,4.18 -35.66,12.36 -12.36,8.18 -20.71,16.53 -28.89,24.7 -9.74,10.96 -19.31,21.93 -27.48,34.28 -8.35,12.35 -16.54,24.7 -24.89,35.66 -10.96,15.14 -21.92,30.28 -32.88,45.24 -10.97,15.14 -20.53,30.1 -30.28,46.63 -1.39,1.39 -2.78,4.18 -5.39,8.18 -2.78,4.18 -4.18,6.79 -5.57,6.79 -1.4,0 -2.78,-2.78 -4.01,-6.79 -1.39,-4.18 -1.39,-9.57 -1.39,-16.53 0,-5.39 -1.39,-12.36 -1.39,-17.75l0 -13.74c0,-15.14 0,-30.1 1.39,-46.63 0,-15.14 1.39,-30.1 1.39,-45.24 0,-5.57 0,-12.36 -1.39,-19.14 -1.39,-6.78 -2.78,-15.13 -4.18,-21.92 -2.78,-6.79 -5.39,-12.36 -9.56,-17.92 -4.18,-4.18 -9.57,-6.79 -17.92,-6.79 -10.97,0 -22.1,5.57 -34.28,16.54 -12.35,10.96 -24.7,24.7 -37.23,38.45 -12.36,15.13 -23.31,30.09 -33.06,45.23 -9.57,15.14 -17.92,27.49 -23.31,35.67 2.78,-15.14 5.39,-30.28 9.57,-45.24 4.17,-15.13 8.35,-30.27 13.74,-43.85 2.78,-5.57 4.18,-10.96 8.35,-19.13 2.78,-6.79 6.79,-15.14 9.57,-21.93 2.78,-8.18 5.57,-15.13 8.35,-21.92 2.78,-6.79 2.78,-13.74 2.78,-19.14 0,-5.39 -1.39,-10.96 -4.17,-13.74 -2.78,-4.18 -6.79,-5.57 -12.36,-5.57 -10.96,0 -22.09,2.78 -34.27,8.18 -12.36,5.57 -22.1,13.74 -27.49,23.31 -2.78,6.79 -6.79,17.92 -10.96,32.89 -4.01,16.53 -9.57,34.27 -13.75,54.8 -4.17,20.53 -9.56,42.46 -13.74,65.95 -5.39,23.31 -9.57,45.23 -12.36,65.94 -4.17,20.53 -6.78,39.84 -9.74,57.59 -2.78,17.75 -4.01,30.1 -4.01,38.45 0,4.18 1.4,8.18 4.01,12.36 2.78,4.18 6.79,5.57 12.36,5.57 6.78,0 13.74,-2.78 17.92,-8.18 4.17,-5.57 8.35,-10.96 10.96,-16.53 2.78,-6.79 8.18,-16.54 15.14,-30.1 6.78,-13.75 16.53,-30.28 26.1,-46.63 9.56,-17.92 20.53,-35.67 33.05,-53.59 12.36,-17.92 23.31,-35.67 34.28,-50.81 10.96,-15.13 20.53,-27.48 30.27,-37.06 9.57,-9.57 16.53,-15.14 21.93,-15.14 4.17,0 6.78,2.79 6.78,6.79 0,4.18 1.4,8.18 1.4,9.57l0 21.92 0 37.07c0,13.74 0,27.48 1.39,42.45 0,15.14 1.4,30.28 2.78,45.24 1.4,15.13 2.78,28.88 4.18,41.23 1.39,12.36 4.17,23.32 8.18,31.5 -1.74,8.54 2.43,12.71 8,12.71z"/>
   </g>
   <path class="fil3" d="M7640.99 1623.14l3833.34 316.83c185.64,10.79 156.07,48.37 64.55,134.32l-1869.7 1828.8c-104.91,115.53 -129.1,83.17 -252.8,-53.76l-731.63 -827.15c-96.91,-101.96 -112.91,-123.53 53.77,-182.68l1818.53 -585.31 -2047.15 365.21c-153.29,32.19 -134.49,53.76 -242.03,-99.35l-680.81 -778.78c-85.96,-93.95 -77.95,-139.54 53.93,-118.13z"/>
  </g>
 </g>
</svg>
